# xmcd CD database file
#
# Track frame offsets:
#	150
#	12244
#	28010
#	46344
#	66522
#	83319
#	92359
#	109622
#	131628
#	148227
#	162970
#	167718
#	184667
#	198958
#	219365
#
# Disc length: 3053 seconds
#
# Revision: 0
# Processed by: cddbd v1.5.1PL0 Copyright (c) Steve Scherf et al.
# Submitted via: CDex 1.51
#
DISCID=c30beb0f
DTITLE=Gorillaz - Demon Days
DYEAR=2005
DGENRE=New Age
TTITLE0=Intro
TTITLE1=Last Living Souls
TTITLE2=Kids With Guns
TTITLE3=O Green World
TTITLE4=Dirty Harry
TTITLE5=Feel Good Inc.
TTITLE6=El Manana
TTITLE7=Every Planet We Reach Is Dead
TTITLE8=November Has Come
TTITLE9=All Alone
TTITLE10=White Light
TTITLE11=DARE
TTITLE12=Fire Coming Out of a Monkey's Head
TTITLE13=Don't Get Lost in Heaven
TTITLE14=Demon Days
EXTD=YEAR: 2005
EXTT0=
EXTT1=
EXTT2=
EXTT3=
EXTT4=
EXTT5=
EXTT6=
EXTT7=
EXTT8=
EXTT9=
EXTT10=
EXTT11=
EXTT12=
EXTT13=
EXTT14=
PLAYORDER=
